<svg id="postman-svg" xmlns="http://www.w3.org/2000/svg" viewBox="0 0 200 260">
  <g id="leg-back" transform-origin="88 158"><rect x="78" y="158" width="20" height="70" rx="9" fill="#5b6b8c"/><rect x="76" y="222" width="26" height="12" rx="5" fill="#2f2b52"/></g>
  <g id="arm-back" transform-origin="70 96"><rect x="60" y="96" width="16" height="58" rx="8" fill="#6e4b3a"/><circle cx="68" cy="154" r="9" fill="#e8c9a8"/></g>
  <g id="bag"><path d="M40,150 L58,90" stroke="#8a5a3c" stroke-width="6" stroke-linecap="round"/><rect x="30" y="150" width="56" height="62" rx="10" fill="#8a5a3c"/><rect x="30" y="150" width="56" height="16" rx="8" fill="#a06c48"/><rect x="46" y="168" width="24" height="18" rx="3" fill="#f3e6cf"/></g>
  <path id="body" d="M70,70 Q100,52 130,70 L142,160 Q100,176 58,160 Z" fill="#6e4b3a"/>
  <path d="M70,70 Q100,52 130,70 L127,86 Q100,72 73,86 Z" fill="#8a5a3c"/>
  <circle cx="100" cy="98" r="3" fill="#f0dfa8"/><circle cx="100" cy="114" r="3" fill="#f0dfa8"/><circle cx="100" cy="130" r="3" fill="#f0dfa8"/>
  <circle id="head" cx="100" cy="44" r="24" fill="#e8c9a8"/>
  <g id="hat"><path d="M74,36 Q100,10 126,36 L126,40 L74,40 Z" fill="#2f2b52"/><rect x="70" y="36" width="60" height="8" rx="4" fill="#3b3768"/><ellipse cx="118" cy="40" rx="14" ry="5" fill="#1b1f3b"/><circle cx="100" cy="18" r="4" fill="#d9b872"/></g>
  <g id="leg-front" transform-origin="112 158"><rect x="102" y="158" width="20" height="70" rx="9" fill="#4a5a7a"/><rect x="100" y="222" width="26" height="12" rx="5" fill="#20233f"/></g>
  <g id="arm-front" transform-origin="128 96"><rect x="122" y="96" width="16" height="52" rx="8" fill="#8a5a3c"/><circle cx="130" cy="146" r="9" fill="#e8c9a8"/></g>
  <g id="hand-envelope" transform="translate(118,132)"><rect x="0" y="0" width="30" height="20" rx="2" fill="#faf3e4" stroke="#d9b872" stroke-width="1"/><path d="M0,0 L15,12 L30,0" fill="none" stroke="#d9b872" stroke-width="1.2"/></g>
</svg>
